<?xml version="1.0" standalone="no"?>
<!DOCTYPE svg PUBLIC "-//W3C//DTD SVG 20010904//EN"
 "http://www.w3.org/TR/2001/REC-SVG-20010904/DTD/svg10.dtd">
<svg version="1.0" xmlns="http://www.w3.org/2000/svg"
 width="1080.000000pt" height="1080.000000pt" viewBox="0 0 1080.000000 1080.000000"
 preserveAspectRatio="xMidYMid meet">

<g transform="translate(0.000000,1080.000000) scale(0.100000,-0.100000)"
fill="#000000" stroke="none">
<path d="M4101 5653 c-8 -21 -45 -110 -82 -198 -48 -112 -77 -167 -96 -182
l-28 -23 70 0 c68 1 69 1 43 16 -33 17 -35 37 -9 98 l20 45 82 -2 81 -2 18
-45 c34 -89 34 -88 -2 -99 -27 -7 -16 -9 62 -10 l95 -1 -30 19 c-25 15 -44 52
-114 220 -47 110 -87 201 -91 201 -3 0 -12 -17 -19 -37z m38 -146 c17 -43 31
-80 31 -83 0 -2 -31 -4 -70 -4 -38 0 -70 3 -70 7 0 19 66 171 71 165 4 -4 21
-42 38 -85z"/>
<path d="M4595 5675 c-49 -17 -107 -80 -123 -133 -20 -65 -15 -143 11 -193 57
-108 200 -143 302 -73 36 24 37 24 42 4 12 -44 23 -16 23 56 0 47 -4 73 -10
69 -5 -3 -10 -13 -10 -22 0 -31 -43 -91 -76 -107 -74 -35 -156 -9 -197 62 -46
78 -28 239 33 297 27 26 39 30 90 30 84 0 113 -24 154 -125 14 -34 14 -33 15
53 1 52 -3 87 -9 87 -5 0 -10 -9 -10 -19 0 -30 -19 -35 -43 -13 -46 41 -121
52 -192 27z"/>
<path d="M6685 5680 c-75 -5 -78 -6 -45 -16 l35 -10 0 -190 0 -189 -35 -12
c-31 -11 -23 -12 75 -11 61 0 99 3 85 5 -44 8 -50 20 -50 108 l0 82 71 5 c60
5 75 10 99 33 39 37 48 88 25 131 -31 58 -99 75 -260 64z m162 -30 c52 -31 58
-116 11 -160 -27 -25 -103 -28 -112 -4 -8 20 -8 132 0 162 8 29 56 30 101 2z"/>
<path d="M7130 5681 l-55 -7 35 -10 35 -10 0 -190 0 -189 -35 -12 c-31 -11
-23 -12 75 -11 77 0 100 2 76 8 -18 4 -38 14 -42 22 -5 7 -8 49 -7 93 4 113
20 110 121 -22 l78 -103 67 1 67 0 -40 18 c-27 12 -64 47 -113 105 -39 47 -72
88 -72 90 0 3 13 7 30 11 41 9 80 58 80 102 0 89 -106 125 -300 104z m177 -21
c55 -20 72 -107 31 -155 -17 -19 -36 -27 -75 -32 l-53 -6 0 95 c0 52 3 98 7
101 10 10 56 8 90 -3z"/>
<path d="M7776 5678 c-56 -15 -131 -91 -146 -148 -53 -197 146 -355 335 -266
92 42 130 112 123 222 -5 80 -41 137 -110 172 -53 27 -143 37 -202 20z m172
-35 c48 -34 67 -88 67 -183 -1 -95 -14 -131 -65 -174 -26 -21 -42 -26 -88 -26
-113 0 -161 62 -162 205 0 143 56 211 168 202 32 -2 64 -12 80 -24z"/>
<path d="M9362 5670 c-39 -24 -56 -62 -48 -109 7 -48 40 -79 122 -116 112 -52
137 -103 82 -162 -16 -18 -33 -23 -68 -23 -59 0 -82 17 -111 82 l-24 53 -3
-37 c-2 -21 -1 -55 1 -75 3 -33 5 -35 12 -15 4 12 9 22 11 22 2 0 20 -11 40
-25 67 -45 165 -27 200 37 19 33 17 95 -3 129 -12 20 -43 42 -99 68 -92 44
-128 81 -119 121 18 74 128 65 170 -14 11 -20 23 -36 27 -36 4 0 7 25 5 55 -1
30 -5 55 -9 55 -5 0 -8 -7 -8 -15 0 -20 -13 -19 -52 5 -42 25 -84 25 -126 0z"/>
<path d="M10344 5680 c-34 -13 -64 -59 -64 -97 0 -63 23 -89 120 -138 49 -25
94 -54 100 -64 16 -31 12 -66 -11 -95 -17 -22 -29 -26 -68 -26 -60 0 -93 24
-117 85 -9 25 -21 45 -25 45 -5 0 -9 -31 -9 -70 0 -67 12 -92 23 -49 l6 21 30
-23 c40 -29 117 -37 160 -15 39 21 71 70 71 111 0 56 -33 91 -129 140 -50 24
-95 54 -101 64 -26 50 6 101 64 101 40 0 80 -29 106 -78 l19 -37 0 65 c0 56
-2 63 -13 48 -12 -16 -15 -16 -52 2 -40 21 -75 24 -110 10z"/>
<path d="M390 5672 c0 -4 10 -12 22 -17 19 -8 33 -45 84 -210 34 -109 66 -201
71 -202 6 -2 36 76 68 174 32 98 60 171 63 163 28 -88 126 -340 132 -340 5 0
11 8 14 18 50 177 110 369 119 384 7 10 17 18 24 18 7 0 13 5 13 10 0 6 -25
10 -55 10 -30 0 -55 -4 -55 -10 0 -5 7 -10 15 -10 30 0 26 -48 -13 -186 -35
-121 -41 -136 -50 -114 -5 14 -33 91 -63 173 -29 81 -58 147 -64 147 -5 0 -34
-77 -64 -170 -30 -93 -56 -168 -58 -166 -9 9 -92 299 -87 307 3 5 11 9 19 9 8
0 17 5 20 10 4 6 -23 10 -74 10 -45 0 -81 -3 -81 -8z"/>
<path d="M1158 5664 l32 -14 0 -184 c0 -192 -1 -198 -45 -209 -11 -2 25 -5 80
-5 55 0 91 3 80 5 -40 10 -45 23 -45 114 l0 89 110 0 110 0 0 -89 c0 -94 -5
-105 -50 -114 -14 -2 22 -4 80 -4 58 0 95 2 83 4 -41 8 -44 22 -41 214 3 175
4 184 23 187 11 2 24 8 29 13 6 5 -32 9 -95 8 -96 0 -101 -2 -69 -13 l35 -13
3 -81 3 -82 -111 0 -111 0 3 82 c3 74 5 83 23 86 11 2 24 8 30 13 5 5 -31 9
-90 8 -95 -1 -98 -1 -67 -15z"/>
<path d="M1775 5668 c17 -6 33 -16 37 -22 10 -15 10 -348 -1 -364 -4 -7 -21
-17 -37 -22 -21 -6 0 -8 76 -9 94 0 101 1 70 12 l-35 12 -3 188 c-2 172 -1
188 15 193 59 19 51 23 -47 23 -87 -1 -100 -2 -75 -11z"/>
<path d="M2089 5678 c-7 -26 -8 -98 -1 -98 5 0 16 17 24 39 15 37 17 38 74 43
33 3 65 3 73 0 11 -4 13 -39 9 -187 -4 -196 -8 -211 -56 -218 -15 -2 23 -4 83
-4 61 0 99 2 85 4 -49 9 -50 14 -50 213 0 102 2 189 4 191 2 2 32 2 66 1 62
-4 62 -4 79 -43 9 -21 19 -39 24 -39 4 0 7 23 7 50 l0 50 -210 0 c-115 0 -210
-1 -211 -2z"/>
<path d="M2656 5671 c5 -5 18 -11 29 -13 19 -3 20 -12 23 -191 l2 -188 -32
-14 c-30 -13 -17 -14 150 -15 l182 0 0 73 -1 72 -26 -54 c-30 -62 -68 -84
-141 -79 -61 4 -73 26 -70 128 l3 75 32 3 c44 4 73 -13 73 -43 0 -14 5 -25 10
-25 6 0 10 32 10 76 0 47 -4 73 -10 69 -5 -3 -10 -15 -10 -25 0 -25 -33 -42
-73 -38 l-32 3 0 90 0 90 55 -2 c85 -4 96 -9 118 -55 l21 -43 1 58 0 57 -162
0 c-97 0 -158 -4 -152 -9z"/>
<path d="M3425 5670 c3 -5 17 -10 29 -10 16 0 26 -7 30 -22 8 -30 8 -316 0
-346 -4 -14 -18 -25 -38 -31 -21 -6 26 -9 157 -10 l187 -1 0 67 c0 74 -1 74
-33 12 -26 -52 -55 -69 -120 -69 -89 0 -87 -4 -87 198 0 97 4 182 8 188 4 5
23 15 42 21 30 9 20 11 -73 12 -70 1 -106 -3 -102 -9z"/>
<path d="M5048 5664 l32 -14 -2 -188 -3 -187 -35 -12 c-30 -10 -6 -12 153 -12
l187 -1 -1 73 0 72 -24 -52 c-30 -66 -67 -87 -142 -81 -29 3 -55 7 -58 10 -3
2 -6 47 -8 99 l-2 94 38 3 c45 4 67 -11 67 -44 0 -13 5 -24 10 -24 6 0 10 32
9 78 -1 75 -1 76 -15 45 -14 -34 -43 -47 -85 -41 -23 3 -24 6 -24 93 l0 90 55
-3 c87 -4 96 -8 118 -54 l21 -43 1 58 0 57 -162 -1 c-150 -1 -160 -2 -130 -15z"/>
<path d="M8270 5666 l35 -13 0 -178 0 -179 -34 -23 -34 -23 84 1 c81 1 83 1
52 15 -18 8 -34 15 -35 17 -5 7 -12 337 -7 337 3 0 13 -19 23 -42 49 -127 142
-328 151 -328 6 0 25 33 43 73 17 39 53 122 80 184 27 62 52 110 56 106 3 -3
6 -72 6 -152 0 -159 -8 -190 -50 -202 -14 -4 22 -7 80 -7 58 1 93 3 78 5 -46
7 -49 18 -46 214 l3 184 30 3 c17 2 34 8 40 13 6 7 -16 9 -64 7 l-74 -3 -76
-172 c-42 -95 -78 -173 -81 -173 -3 0 -39 79 -80 175 l-75 175 -70 -1 c-68 -1
-69 -1 -35 -13z"/>
<path d="M8955 5670 c3 -5 17 -10 30 -10 12 0 26 -7 29 -16 3 -9 6 -93 6 -189
0 -183 -1 -189 -50 -198 -14 -2 22 -4 80 -5 79 0 97 2 74 9 -20 6 -34 17 -38
31 -8 30 -8 316 0 346 5 16 14 22 35 22 16 0 29 5 29 10 0 6 -40 10 -101 10
-64 0 -98 -4 -94 -10z"/>
<path d="M9755 5670 c3 -5 14 -10 25 -10 10 0 21 -7 24 -16 9 -24 7 -347 -3
-362 -4 -7 -21 -17 -37 -22 -19 -5 35 -9 159 -9 l187 -1 0 65 c0 36 -2 65 -4
65 -2 0 -14 -21 -27 -46 -25 -53 -63 -74 -131 -74 -69 0 -73 6 -73 112 l0 93
38 3 c45 4 67 -11 67 -44 0 -13 5 -24 10 -24 6 0 10 32 10 76 0 47 -4 73 -10
69 -5 -3 -10 -15 -10 -25 0 -25 -33 -42 -73 -38 l-32 3 0 90 0 90 60 -3 c84
-5 91 -8 114 -55 l21 -42 -3 55 -2 55 -158 3 c-107 2 -156 -1 -152 -8z"/>
<path d="M5915 5658 c-46 -26 -58 -79 -30 -128 21 -36 19 -44 -16 -64 -38 -22
-69 -72 -69 -109 0 -100 114 -152 201 -91 l38 26 34 -26 c46 -35 104 -36 137
-1 13 14 18 25 12 25 -6 0 -14 -4 -17 -10 -3 -5 -21 -10 -40 -10 -25 0 -40 8
-63 34 l-30 35 35 66 c20 38 45 71 59 77 42 19 26 28 -48 28 l-73 0 29 -23
c25 -20 28 -28 22 -58 -3 -20 -12 -44 -19 -54 -12 -16 -18 -11 -66 55 -49 67
-52 74 -35 83 35 20 74 65 74 87 0 33 -44 70 -82 70 -18 0 -42 -6 -53 -12z
m83 -26 c20 -26 14 -56 -18 -87 -16 -16 -31 -27 -33 -24 -42 52 -48 100 -16
123 23 16 47 12 67 -12z m-20 -243 l53 -74 -26 -22 c-39 -34 -80 -30 -121 11
-43 43 -46 90 -8 136 15 17 32 29 38 27 6 -2 35 -37 64 -78z"/>
</g>
</svg>
